<svg xmlns="http://www.w3.org/2000/svg" width="48.804" height="48.805" viewBox="0 0 48.804 48.805">
  <path id="github" d="M24.4,0A24.5,24.5,0,0,0,0,24.4C0,35.84,8.026,46.23,18.683,48.8V40.731A5.876,5.876,0,0,1,12.1,37.8c-.554-.935-1.537-1.95-2.562-1.875l-.251-2.848c2.217-.19,4.134,1.351,5.272,3.263A3.162,3.162,0,0,0,16.39,37.91a3.844,3.844,0,0,0,2.4-.209,6.7,6.7,0,0,1,1.681-3.439h0c-6.356-.948-8.889-4.32-9.894-6.982a11.2,11.2,0,0,1,1.739-10.739.383.383,0,0,0,.1-.3A9.36,9.36,0,0,1,12.7,10c1.247.369,1.449-.371,5.415,2.039l.685.412c.287.171.2.073.483.052a20.709,20.709,0,0,1,5.121-.72,20.8,20.8,0,0,1,5.192.739l.222.022c-.019,0,.06-.014.194-.094,4.954-3,4.776-2.02,6.1-2.452a9.52,9.52,0,0,1,.278,6.251c-.144.444,4.3,4.509,1.835,11.034-1.005,2.663-3.538,6.035-9.894,6.983h0c.815,1.242,1.794,1.9,1.788,4.464V48.8C40.779,46.23,48.8,35.84,48.8,24.4A24.5,24.5,0,0,0,24.4,0Zm0,0" fill="#b9b9b9"/>
</svg>
