<svg id="cancel_1_" data-name="cancel (1)" xmlns="http://www.w3.org/2000/svg" width="100.016" height="100.016" viewBox="0 0 100.016 100.016">
  <g id="Group_29" data-name="Group 29">
    <path id="Path_32" data-name="Path 32" d="M50.2,0C22.736,0,0,22.345,0,49.813a50.539,50.539,0,0,0,50.2,50.2c27.467,0,49.813-22.736,49.813-50.2A49.869,49.869,0,0,0,50.2,0ZM74.86,66.181a5.862,5.862,0,1,1-8.29,8.29L50.2,58.1,33.445,74.473a5.862,5.862,0,0,1-8.29-8.29l16.37-16.37-16.37-16.37a5.862,5.862,0,1,1,8.29-8.29L50.2,41.526,66.569,25.153a5.862,5.862,0,1,1,8.29,8.29L58.49,49.813Z"/>
  </g>
</svg>
